HIERARCHY
ROOT hip
{
  OFFSET 0 0 0
  CHANNELS 6 Xposition Yposition Zposition Zrotation Yrotation Xrotation
  JOINT abdomen
  {
    OFFSET 0 20.6881 -0.73152
    CHANNELS 3 Zrotation Xrotation Yrotation
    JOINT chest
    {
      OFFSET 0 11.7043 -0.48768
      CHANNELS 3 Zrotation Xrotation Yrotation
      JOINT neck
      {
        OFFSET 0 22.1894 -2.19456
        CHANNELS 3 Zrotation Xrotation Yrotation
        JOINT head
        {
          OFFSET -0.24384 7.07133 1.2192
          CHANNELS 3 Zrotation Xrotation Yrotation
          JOINT leftEye
          {
            OFFSET 4.14528 8.04674 8.04672
            CHANNELS 3 Zrotation Xrotation Yrotation
            End Site
            {
              OFFSET 1 0 0
            }
          }
          JOINT rightEye
          {
            OFFSET -3.6576 8.04674 8.04672
            CHANNELS 3 Zrotation Xrotation Yrotation
            End Site
            {
              OFFSET 1 0 0
            }
          }
        }
      }
      JOINT rCollar
      {
        OFFSET -2.68224 19.2634 -4.8768
        CHANNELS 3 Zrotation Xrotation Yrotation
        JOINT rShldr
        {
          OFFSET -8.77824 -1.95073 1.46304
          CHANNELS 3 Zrotation Xrotation Yrotation
          JOINT rForeArm
          {
            OFFSET -28.1742 -1.7115 0.48768
            CHANNELS 3 Zrotation Xrotation Yrotation
            JOINT rHand
            {
              OFFSET -22.5879 0.773209 7.07136
              CHANNELS 3 Zrotation Xrotation Yrotation
              JOINT rThumb1
              {
                OFFSET -1.2192 -0.487915 3.41376
                CHANNELS 3 Zrotation Xrotation Yrotation
                JOINT rThumb2
                {
                  OFFSET -3.37035 -0.52449 3.41376
                  CHANNELS 3 Zrotation Xrotation Yrotation
                  End Site
                  {
                    OFFSET -1.78271 -1.18214 1.43049
                  }
                }
              }
              JOINT rIndex1
              {
                OFFSET -7.75947 0.938293 5.60832
                CHANNELS 3 Zrotation Xrotation Yrotation
                JOINT rIndex2
                {
                  OFFSET -2.54057 -0.884171 1.56538
                  CHANNELS 3 Zrotation Xrotation Yrotation
                  End Site
                  {
                    OFFSET -1.62519 -0.234802 1.16502
                  }
                }
              }
              JOINT rMid1
              {
                OFFSET -8.24714 1.18213 3.41376
                CHANNELS 3 Zrotation Xrotation Yrotation
                JOINT rMid2
                {
                  OFFSET -3.10165 -0.590103 1.0647
                  CHANNELS 3 Zrotation Xrotation Yrotation
                  End Site
                  {
                    OFFSET -2.48547 -0.328903 0.83742
                  }
                }
              }
              JOINT rRing1
              {
                OFFSET -8.82822 0.546677 1.51678
                CHANNELS 3 Zrotation Xrotation Yrotation
                JOINT rRing2
                {
                  OFFSET -2.60934 -0.819778 -0.0198488
                  CHANNELS 3 Zrotation Xrotation Yrotation
                  End Site
                  {
                    OFFSET -2.33842 -0.294052 0.168128
                  }
                }
              }
              JOINT rPinky1
              {
                OFFSET -8.27202 -0.0477905 -0.4584
                CHANNELS 3 Zrotation Xrotation Yrotation
                JOINT rPinky2
                {
                  OFFSET -1.82734 -0.647385 -0.700984
                  CHANNELS 3 Zrotation Xrotation Yrotation
                  End Site
                  {
                    OFFSET -1.69225 -0.51767 -0.607171
                  }
                }
              }
            }
          }
        }
      }
      JOINT lCollar
      {
        OFFSET 2.68224 19.2634 -4.8768
        CHANNELS 3 Zrotation Xrotation Yrotation
        JOINT lShldr
        {
          OFFSET 8.77824 -1.95073 1.46304
          CHANNELS 3 Zrotation Xrotation Yrotation
          JOINT lForeArm
          {
            OFFSET 28.1742 -1.7115 0.48768
            CHANNELS 3 Zrotation Xrotation Yrotation
            JOINT lHand
            {
              OFFSET 22.5879 0.773209 7.07136
              CHANNELS 3 Zrotation Xrotation Yrotation
              JOINT lThumb1
              {
                OFFSET 1.2192 -0.487915 3.41376
                CHANNELS 3 Zrotation Xrotation Yrotation
                JOINT lThumb2
                {
                  OFFSET 3.37035 -0.52449 3.41376
                  CHANNELS 3 Zrotation Xrotation Yrotation
                  End Site
                  {
                    OFFSET 1.78271 -1.18214 1.43049
                  }
                }
              }
              JOINT lIndex1
              {
                OFFSET 7.75947 0.938293 5.60832
                CHANNELS 3 Zrotation Xrotation Yrotation
                JOINT lIndex2
                {
                  OFFSET 2.54057 -0.884171 1.56538
                  CHANNELS 3 Zrotation Xrotation Yrotation
                  End Site
                  {
                    OFFSET 1.62519 -0.234802 1.16502
                  }
                }
              }
              JOINT lMid1
              {
                OFFSET 8.24714 1.18213 3.41376
                CHANNELS 3 Zrotation Xrotation Yrotation
                JOINT lMid2
                {
                  OFFSET 3.10165 -0.590103 1.0647
                  CHANNELS 3 Zrotation Xrotation Yrotation
                  End Site
                  {
                    OFFSET 2.48547 -0.328903 0.83742
                  }
                }
              }
              JOINT lRing1
              {
                OFFSET 8.82822 0.546677 1.51678
                CHANNELS 3 Zrotation Xrotation Yrotation
                JOINT lRing2
                {
                  OFFSET 2.60934 -0.819778 -0.0198488
                  CHANNELS 3 Zrotation Xrotation Yrotation
                  End Site
                  {
                    OFFSET 2.33842 -0.294052 0.168128
                  }
                }
              }
              JOINT lPinky1
              {
                OFFSET 8.27202 -0.0477905 -0.4584
                CHANNELS 3 Zrotation Xrotation Yrotation
                JOINT lPinky2
                {
                  OFFSET 1.82734 -0.647385 -0.700984
                  CHANNELS 3 Zrotation Xrotation Yrotation
                  End Site
                  {
                    OFFSET 1.69225 -0.51767 -0.607171
                  }
                }
              }
            }
          }
        }
      }
    }
  }
  JOINT rButtock
  {
    OFFSET -8.77824 4.35084 1.2192
    CHANNELS 3 Zrotation Xrotation Yrotation
    JOINT rThigh
    {
      OFFSET 0 -1.70687 -2.19456
      CHANNELS 3 Zrotation Xrotation Yrotation
      JOINT rShin
      {
        OFFSET 0 -36.8199 0.73152
        CHANNELS 3 Zrotation Xrotation Yrotation
        JOINT rFoot
        {
          OFFSET 0.73152 -45.1104 -5.12064
          CHANNELS 3 Zrotation Xrotation Yrotation
          End Site
          {
            OFFSET -1.1221 -3.69964 12.103
          }
        }
      }
    }
  }
  JOINT lButtock
  {
    OFFSET 8.77824 4.35084 1.2192
    CHANNELS 3 Zrotation Xrotation Yrotation
    JOINT lThigh
    {
      OFFSET 0 -1.70687 -2.19456
      CHANNELS 3 Zrotation Xrotation Yrotation
      JOINT lShin
      {
        OFFSET 0 -36.8199 0.73152
        CHANNELS 3 Zrotation Xrotation Yrotation
        JOINT lFoot
        {
          OFFSET -0.73152 -45.1104 -5.12064
          CHANNELS 3 Zrotation Xrotation Yrotation
          End Site
          {
            OFFSET 1.1221 -3.69964 12.103
          }
        }
      }
    }
  }
}
MOTION
Frames:	4
Frame Time:	0.00833333
-127.305 85.1237 50.1783 0.0 0.0 0.0 0.436024 -0.0238368 0.0128232 0.121302 -0.0396017 0.0210539 -4.55143e-15 -7.95139e-16 -6.21199e-18 -1.36975e-14 3.18055e-15 -3.26131e-17 -0.0 0.0 0.0 -0.0 0.0 0.0 -2.28678e-15 1.12205e-16 1.49089e-16 -4.61922e-14 1.82633e-15 3.97569e-16 -8.18645e-13 3.19646e-13 2.22639e-14 -9.48088e-12 1.2014e-13 -7.63333e-14 -2.23471e-11 9.56354e-13 -8.5875e-14 -3.85925e-11 1.65389e-12 -1.58233e-13 -2.23414e-11 9.57347e-13 -1.08139e-13 7.73091 5.47488 0.417314 -2.23469e-11 9.56751e-13 -9.22361e-14 2.90554 0.965183 0.102902 -2.23412e-11 9.56452e-13 -9.14409e-14 10.2786 0.731801 0.0259123 -2.23519e-11 9.57347e-13 -7.95139e-14 2.22167 -0.733487 -0.20892 -2.28542e-15 1.12205e-16 -1.49089e-16 -5.00401e-14 2.29845e-15 -1.39149e-15 -8.36088e-13 -1.72148e-13 -1.27222e-14 -9.47041e-12 6.30793e-13 -2.22639e-14 -2.23545e-11 9.90122e-13 -8.90555e-14 -3.8602e-11 1.70478e-12 -1.53462e-13 -2.23577e-11 9.9114e-13 -7.95139e-14 -7.73091 5.47488 -0.417314 -2.23537e-11 9.90544e-13 -8.90555e-14 -2.90554 0.965183 -0.102902 -2.23627e-11 9.90445e-13 -9.14409e-14 -10.2786 0.731801 -0.0259123 -2.23521e-11 9.90345e-13 -9.85972e-14 -2.22167 -0.733487 0.20892 -2.03217e-16 0.0 -3.88251e-19 0.648276 -4.71087 -0.0693193 -0.000820232 2.99766 0.00402437 -0.322643 1.72344 0.0693119 2.03217e-16 0.0 3.88251e-19 0.0327303 -2.68 0.0231675 0.00579859 -0.680224 0.0505732 0.296597 3.37041 -0.096746
-125.203 83.5124 33.392 -175.306 -9.4204 -175.389 2.8113 -0.387047 2.25734 0.112096 -4.01197 0.560902 1.51795 1.02429 2.33546 -0.341883 5.3936 3.05141 -0.0 0.0 0.0 -0.0 0.0 0.0 2.02586e-14 -7.43515e-14 -8.84751e-14 16.7029 8.16589 -5.64506 -27.0043 -24.5945 13.746 0.0331541 -4.04157 -0.562916 3.52988e-10 2.27125e-09 3.78137e-10 6.05501e-10 3.89637e-09 6.58969e-10 3.52994e-10 2.27125e-09 3.78118e-10 7.73091 5.47488 0.417314 3.52989e-10 2.27124e-09 3.78132e-10 2.90554 0.965183 0.102902 3.52993e-10 2.27124e-09 3.78134e-10 10.2786 0.731801 0.0259123 3.5298e-10 2.27125e-09 3.78145e-10 2.22167 -0.733487 -0.20892 2.02816e-14 -7.435e-14 -8.87267e-14 -18.0357 1.5804 3.04938 -1.58496 15.5808 41.4731 -0.642024 -17.9434 2.09738 4.19087e-10 -1.37718e-10 -4.25467e-10 7.41372e-10 -2.92039e-10 -7.04411e-10 4.19084e-10 -1.37714e-10 -4.25455e-10 -7.73091 5.47488 -0.417314 4.19088e-10 -1.37716e-10 -4.25466e-10 -2.90554 0.965183 -0.102902 4.19078e-10 -1.37716e-10 -4.25469e-10 -10.2786 0.731801 -0.0259123 4.19088e-10 -1.37716e-10 -4.25476e-10 -2.22167 -0.733487 0.20892 -2.03217e-16 0.0 -3.88251e-19 6.30382 -5.79848 5.59182 -0.00361396 4.85159 -0.00916735 -1.0146 -9.04017 -7.9963 2.03217e-16 0.0 3.88251e-19 3.61498 -8.20484 -7.51653 0.00490388 4.41934 -0.0919683 0.458203 0.787642 0.754233
-125.31 83.5667 33.4861 -175.409 -9.5312 -175.324 5.35142 -0.756901 4.63497 0.17994 -8.2094 1.14219 3.05753 2.10359 4.82014 -1.34875 11.0196 6.39818 -0.0 0.0 0.0 -0.0 0.0 0.0 4.57998e-14 -1.57887e-13 -1.86345e-13 36.2284 16.5893 -12.0086 -38.4986 -45.0744 37.9365 -0.0190295 -8.32197 -1.16868 7.58754e-10 4.71832e-09 7.66011e-10 1.302e-09 8.09453e-09 1.33518e-09 7.58762e-10 4.71833e-09 7.65996e-10 7.73091 5.47488 0.417314 7.58756e-10 4.71832e-09 7.66009e-10 2.90554 0.965183 0.102902 7.58759e-10 4.71832e-09 7.6601e-10 10.2786 0.731801 0.0259123 7.58743e-10 4.71832e-09 7.66022e-10 2.22167 -0.733487 -0.20892 4.58492e-14 -1.57883e-13 -1.86544e-13 -37.3576 3.32 6.26864 -17.4409 5.69706 83.648 0.429415 -36.8139 5.12876 8.88693e-10 -2.77499e-10 -8.94861e-10 1.57201e-09 -5.9251e-10 -1.48263e-09 8.88693e-10 -2.77493e-10 -8.94845e-10 -7.73091 5.47488 -0.417314 8.88696e-10 -2.77497e-10 -8.94859e-10 -2.90554 0.965183 -0.102902 8.88684e-10 -2.77496e-10 -8.94862e-10 -10.2786 0.731801 -0.0259123 8.88694e-10 -2.77497e-10 -8.94869e-10 -2.22167 -0.733487 0.20892 -2.03217e-16 0.0 -3.88251e-19 12.507 -6.87056 11.5458 -0.00537157 6.83203 -0.0205102 -5.14991 -19.6847 -17.3193 2.03217e-16 0.0 3.88251e-19 5.78869 -13.6709 -15.7862 0.0319581 9.83806 -0.245833 0.710795 -1.94399 1.62988
-125.4 83.6263 33.5864 -175.481 -9.6113 -175.192 7.647 -1.10665 6.7475 0.322497 -11.9523 1.67275 4.30372 3.05243 7.01527 -2.79975 15.9936 9.48397 -0.0 0.0 0.0 -0.0 0.0 0.0 6.53493e-14 -2.23279e-13 -2.65723e-13 55.223 23.5048 -18.3311 -31.216 -50.3028 72.1069 -0.143367 -12.12 -1.72296 1.10366e-09 6.81182e-09 1.13458e-09 1.89369e-09 1.16858e-08 1.97722e-09 1.10367e-09 6.81183e-09 1.13457e-09 7.73091 5.47488 0.417314 1.10366e-09 6.81182e-09 1.13458e-09 2.90554 0.965183 0.102902 1.10366e-09 6.81182e-09 1.13458e-09 10.2786 0.731801 0.0259123 1.10364e-09 6.81182e-09 1.13459e-09 2.22167 -0.733487 -0.20892 6.54157e-14 -2.23275e-13 -2.65882e-13 -54.6109 4.68743 9.1756 -22.6004 -25.0772 104.883 4.26276 -53.4382 10.0825 1.30197e-09 -4.15133e-10 -1.27622e-09 2.30132e-09 -8.79528e-10 -2.11293e-09 1.30197e-09 -4.15124e-10 -1.27621e-09 -7.73091 5.47488 -0.417314 1.30197e-09 -4.15129e-10 -1.27622e-09 -2.90554 0.965183 -0.102902 1.30196e-09 -4.15129e-10 -1.27622e-09 -10.2786 0.731801 -0.0259123 1.30197e-09 -4.1513e-10 -1.27623e-09 -2.22167 -0.733487 0.20892 -2.03217e-16 0.0 -3.88251e-19 18.2498 -7.70919 16.9856 -0.00661398 8.55945 -0.0358404 -12.1648 -27.9564 -27.2167 2.03217e-16 0.0 3.88251e-19 6.35906 -17.9488 -23.575 0.081183 14.6182 -0.38881 1.01183 -4.37367 2.46282
